<?xml version="1.0" encoding="UTF-8" standalone="no"?>
<!DOCTYPE svg PUBLIC "-//W3C//DTD SVG 1.1//EN"
 "http://www.w3.org/Graphics/SVG/1.1/DTD/svg11.dtd">
<!-- Generated by graphviz version 8.1.0 (20230707.0739)
 -->
<!-- Pages: 1 -->
<svg width="422pt" height="404pt"
 viewBox="0.00 0.00 422.00 404.00" xmlns="http://www.w3.org/2000/svg" xmlns:xlink="http://www.w3.org/1999/xlink">
<g id="graph0" class="graph" transform="scale(1 1) rotate(0) translate(4 400)">
<polygon fill="white" stroke="none" points="-4,4 -4,-400 418,-400 418,4 -4,4"/>
<!-- n0 -->
<g id="node1" class="node">
<title>n0</title>
<ellipse fill="none" stroke="black" cx="207" cy="-378" rx="39.58" ry="18"/>
<text text-anchor="middle" x="207" y="-372.95" font-family="Helvetica,Arial,sans-serif" font-size="14.00">Lista 1</text>
</g>
<!-- n1 -->
<g id="node2" class="node">
<title>n1</title>
<ellipse fill="none" stroke="black" cx="27" cy="-306" rx="27" ry="18"/>
<text text-anchor="middle" x="27" y="-300.95" font-family="Helvetica,Arial,sans-serif" font-size="14.00">t5</text>
</g>
<!-- n0&#45;&#45;n1 -->
<g id="edge1" class="edge">
<title>n0&#45;&#45;n1</title>
<path fill="none" stroke="black" d="M175.79,-366.41C146.42,-356.23 101.33,-340.07 63,-324 58.16,-321.97 53.01,-319.65 48.18,-317.38"/>
</g>
<!-- n2 -->
<g id="node3" class="node">
<title>n2</title>
<ellipse fill="none" stroke="black" cx="99" cy="-306" rx="27" ry="18"/>
<text text-anchor="middle" x="99" y="-300.95" font-family="Helvetica,Arial,sans-serif" font-size="14.00">A4</text>
</g>
<!-- n0&#45;&#45;n2 -->
<g id="edge2" class="edge">
<title>n0&#45;&#45;n2</title>
<path fill="none" stroke="black" d="M184.88,-362.67C165.14,-349.87 136.52,-331.32 117.84,-319.21"/>
</g>
<!-- F1C1 -->
<g id="node4" class="node">
<title>F1C1</title>
<ellipse fill="none" stroke="black" cx="171" cy="-306" rx="27" ry="18"/>
<text text-anchor="middle" x="171" y="-300.95" font-family="Helvetica,Arial,sans-serif" font-size="14.00">4</text>
</g>
<!-- n0&#45;&#45;F1C1 -->
<g id="edge3" class="edge">
<title>n0&#45;&#45;F1C1</title>
<path fill="none" stroke="black" d="M198.29,-360.05C192.54,-348.89 185.06,-334.34 179.39,-323.31"/>
</g>
<!-- F1C2 -->
<g id="node5" class="node">
<title>F1C2</title>
<ellipse fill="none" stroke="black" cx="243" cy="-306" rx="27" ry="18"/>
<text text-anchor="middle" x="243" y="-300.95" font-family="Helvetica,Arial,sans-serif" font-size="14.00">6</text>
</g>
<!-- n0&#45;&#45;F1C2 -->
<g id="edge4" class="edge">
<title>n0&#45;&#45;F1C2</title>
<path fill="none" stroke="black" d="M215.71,-360.05C221.46,-348.89 228.94,-334.34 234.61,-323.31"/>
</g>
<!-- F1C3 -->
<g id="node6" class="node">
<title>F1C3</title>
<ellipse fill="none" stroke="black" cx="315" cy="-306" rx="27" ry="18"/>
<text text-anchor="middle" x="315" y="-300.95" font-family="Helvetica,Arial,sans-serif" font-size="14.00">0</text>
</g>
<!-- n0&#45;&#45;F1C3 -->
<g id="edge5" class="edge">
<title>n0&#45;&#45;F1C3</title>
<path fill="none" stroke="black" d="M229.12,-362.67C248.86,-349.87 277.48,-331.32 296.16,-319.21"/>
</g>
<!-- F1C4 -->
<g id="node7" class="node">
<title>F1C4</title>
<ellipse fill="none" stroke="black" cx="387" cy="-306" rx="27" ry="18"/>
<text text-anchor="middle" x="387" y="-300.95" font-family="Helvetica,Arial,sans-serif" font-size="14.00">8</text>
</g>
<!-- n0&#45;&#45;F1C4 -->
<g id="edge6" class="edge">
<title>n0&#45;&#45;F1C4</title>
<path fill="none" stroke="black" d="M238.21,-366.41C267.58,-356.23 312.67,-340.07 351,-324 355.84,-321.97 360.99,-319.65 365.82,-317.38"/>
</g>
<!-- F2C1 -->
<g id="node8" class="node">
<title>F2C1</title>
<ellipse fill="none" stroke="black" cx="171" cy="-234" rx="27" ry="18"/>
<text text-anchor="middle" x="171" y="-228.95" font-family="Helvetica,Arial,sans-serif" font-size="14.00">0</text>
</g>
<!-- F1C1&#45;&#45;F2C1 -->
<g id="edge7" class="edge">
<title>F1C1&#45;&#45;F2C1</title>
<path fill="none" stroke="black" d="M171,-287.7C171,-276.85 171,-262.92 171,-252.1"/>
</g>
<!-- F2C2 -->
<g id="node9" class="node">
<title>F2C2</title>
<ellipse fill="none" stroke="black" cx="243" cy="-234" rx="27" ry="18"/>
<text text-anchor="middle" x="243" y="-228.95" font-family="Helvetica,Arial,sans-serif" font-size="14.00">0</text>
</g>
<!-- F1C2&#45;&#45;F2C2 -->
<g id="edge8" class="edge">
<title>F1C2&#45;&#45;F2C2</title>
<path fill="none" stroke="black" d="M243,-287.7C243,-276.85 243,-262.92 243,-252.1"/>
</g>
<!-- F2C3 -->
<g id="node10" class="node">
<title>F2C3</title>
<ellipse fill="none" stroke="black" cx="315" cy="-234" rx="27" ry="18"/>
<text text-anchor="middle" x="315" y="-228.95" font-family="Helvetica,Arial,sans-serif" font-size="14.00">12</text>
</g>
<!-- F1C3&#45;&#45;F2C3 -->
<g id="edge9" class="edge">
<title>F1C3&#45;&#45;F2C3</title>
<path fill="none" stroke="black" d="M315,-287.7C315,-276.85 315,-262.92 315,-252.1"/>
</g>
<!-- F2C4 -->
<g id="node11" class="node">
<title>F2C4</title>
<ellipse fill="none" stroke="black" cx="387" cy="-234" rx="27" ry="18"/>
<text text-anchor="middle" x="387" y="-228.95" font-family="Helvetica,Arial,sans-serif" font-size="14.00">6</text>
</g>
<!-- F1C4&#45;&#45;F2C4 -->
<g id="edge10" class="edge">
<title>F1C4&#45;&#45;F2C4</title>
<path fill="none" stroke="black" d="M387,-287.7C387,-276.85 387,-262.92 387,-252.1"/>
</g>
<!-- F3C1 -->
<g id="node12" class="node">
<title>F3C1</title>
<ellipse fill="none" stroke="black" cx="171" cy="-162" rx="27" ry="18"/>
<text text-anchor="middle" x="171" y="-156.95" font-family="Helvetica,Arial,sans-serif" font-size="14.00">6</text>
</g>
<!-- F2C1&#45;&#45;F3C1 -->
<g id="edge11" class="edge">
<title>F2C1&#45;&#45;F3C1</title>
<path fill="none" stroke="black" d="M171,-215.7C171,-204.85 171,-190.92 171,-180.1"/>
</g>
<!-- F3C2 -->
<g id="node13" class="node">
<title>F3C2</title>
<ellipse fill="none" stroke="black" cx="243" cy="-162" rx="27" ry="18"/>
<text text-anchor="middle" x="243" y="-156.95" font-family="Helvetica,Arial,sans-serif" font-size="14.00">8</text>
</g>
<!-- F2C2&#45;&#45;F3C2 -->
<g id="edge12" class="edge">
<title>F2C2&#45;&#45;F3C2</title>
<path fill="none" stroke="black" d="M243,-215.7C243,-204.85 243,-190.92 243,-180.1"/>
</g>
<!-- F3C3 -->
<g id="node14" class="node">
<title>F3C3</title>
<ellipse fill="none" stroke="black" cx="315" cy="-162" rx="27" ry="18"/>
<text text-anchor="middle" x="315" y="-156.95" font-family="Helvetica,Arial,sans-serif" font-size="14.00">0</text>
</g>
<!-- F2C3&#45;&#45;F3C3 -->
<g id="edge13" class="edge">
<title>F2C3&#45;&#45;F3C3</title>
<path fill="none" stroke="black" d="M315,-215.7C315,-204.85 315,-190.92 315,-180.1"/>
</g>
<!-- F3C4 -->
<g id="node15" class="node">
<title>F3C4</title>
<ellipse fill="none" stroke="black" cx="387" cy="-162" rx="27" ry="18"/>
<text text-anchor="middle" x="387" y="-156.95" font-family="Helvetica,Arial,sans-serif" font-size="14.00">4</text>
</g>
<!-- F2C4&#45;&#45;F3C4 -->
<g id="edge14" class="edge">
<title>F2C4&#45;&#45;F3C4</title>
<path fill="none" stroke="black" d="M387,-215.7C387,-204.85 387,-190.92 387,-180.1"/>
</g>
<!-- F4C1 -->
<g id="node16" class="node">
<title>F4C1</title>
<ellipse fill="none" stroke="black" cx="171" cy="-90" rx="27" ry="18"/>
<text text-anchor="middle" x="171" y="-84.95" font-family="Helvetica,Arial,sans-serif" font-size="14.00">2</text>
</g>
<!-- F3C1&#45;&#45;F4C1 -->
<g id="edge15" class="edge">
<title>F3C1&#45;&#45;F4C1</title>
<path fill="none" stroke="black" d="M171,-143.7C171,-132.85 171,-118.92 171,-108.1"/>
</g>
<!-- F4C2 -->
<g id="node17" class="node">
<title>F4C2</title>
<ellipse fill="none" stroke="black" cx="243" cy="-90" rx="27" ry="18"/>
<text text-anchor="middle" x="243" y="-84.95" font-family="Helvetica,Arial,sans-serif" font-size="14.00">0</text>
</g>
<!-- F3C2&#45;&#45;F4C2 -->
<g id="edge16" class="edge">
<title>F3C2&#45;&#45;F4C2</title>
<path fill="none" stroke="black" d="M243,-143.7C243,-132.85 243,-118.92 243,-108.1"/>
</g>
<!-- F4C3 -->
<g id="node18" class="node">
<title>F4C3</title>
<ellipse fill="none" stroke="black" cx="315" cy="-90" rx="27" ry="18"/>
<text text-anchor="middle" x="315" y="-84.95" font-family="Helvetica,Arial,sans-serif" font-size="14.00">2</text>
</g>
<!-- F3C3&#45;&#45;F4C3 -->
<g id="edge17" class="edge">
<title>F3C3&#45;&#45;F4C3</title>
<path fill="none" stroke="black" d="M315,-143.7C315,-132.85 315,-118.92 315,-108.1"/>
</g>
<!-- F4C4 -->
<g id="node19" class="node">
<title>F4C4</title>
<ellipse fill="none" stroke="black" cx="387" cy="-90" rx="27" ry="18"/>
<text text-anchor="middle" x="387" y="-84.95" font-family="Helvetica,Arial,sans-serif" font-size="14.00">10</text>
</g>
<!-- F3C4&#45;&#45;F4C4 -->
<g id="edge18" class="edge">
<title>F3C4&#45;&#45;F4C4</title>
<path fill="none" stroke="black" d="M387,-143.7C387,-132.85 387,-118.92 387,-108.1"/>
</g>
<!-- F5C1 -->
<g id="node20" class="node">
<title>F5C1</title>
<ellipse fill="none" stroke="black" cx="171" cy="-18" rx="27" ry="18"/>
<text text-anchor="middle" x="171" y="-12.95" font-family="Helvetica,Arial,sans-serif" font-size="14.00">0</text>
</g>
<!-- F4C1&#45;&#45;F5C1 -->
<g id="edge19" class="edge">
<title>F4C1&#45;&#45;F5C1</title>
<path fill="none" stroke="black" d="M171,-71.7C171,-60.85 171,-46.92 171,-36.1"/>
</g>
<!-- F5C2 -->
<g id="node21" class="node">
<title>F5C2</title>
<ellipse fill="none" stroke="black" cx="243" cy="-18" rx="27" ry="18"/>
<text text-anchor="middle" x="243" y="-12.95" font-family="Helvetica,Arial,sans-serif" font-size="14.00">0</text>
</g>
<!-- F4C2&#45;&#45;F5C2 -->
<g id="edge20" class="edge">
<title>F4C2&#45;&#45;F5C2</title>
<path fill="none" stroke="black" d="M243,-71.7C243,-60.85 243,-46.92 243,-36.1"/>
</g>
<!-- F5C3 -->
<g id="node22" class="node">
<title>F5C3</title>
<ellipse fill="none" stroke="black" cx="315" cy="-18" rx="27" ry="18"/>
<text text-anchor="middle" x="315" y="-12.95" font-family="Helvetica,Arial,sans-serif" font-size="14.00">6</text>
</g>
<!-- F4C3&#45;&#45;F5C3 -->
<g id="edge21" class="edge">
<title>F4C3&#45;&#45;F5C3</title>
<path fill="none" stroke="black" d="M315,-71.7C315,-60.85 315,-46.92 315,-36.1"/>
</g>
<!-- F5C4 -->
<g id="node23" class="node">
<title>F5C4</title>
<ellipse fill="none" stroke="black" cx="387" cy="-18" rx="27" ry="18"/>
<text text-anchor="middle" x="387" y="-12.95" font-family="Helvetica,Arial,sans-serif" font-size="14.00">2</text>
</g>
<!-- F4C4&#45;&#45;F5C4 -->
<g id="edge22" class="edge">
<title>F4C4&#45;&#45;F5C4</title>
<path fill="none" stroke="black" d="M387,-71.7C387,-60.85 387,-46.92 387,-36.1"/>
</g>
</g>
</svg>
