<?xml version="1.0" encoding="UTF-8" standalone="no"?>
<!DOCTYPE svg PUBLIC "-//W3C//DTD SVG 1.1//EN"
 "http://www.w3.org/Graphics/SVG/1.1/DTD/svg11.dtd">
<!-- Generated by graphviz version 8.1.0 (20230707.0739)
 -->
<!-- Pages: 1 -->
<svg width="426pt" height="404pt"
 viewBox="0.00 0.00 426.00 404.00" xmlns="http://www.w3.org/2000/svg" xmlns:xlink="http://www.w3.org/1999/xlink">
<g id="graph0" class="graph" transform="scale(1 1) rotate(0) translate(4 400)">
<polygon fill="white" stroke="none" points="-4,4 -4,-400 422,-400 422,4 -4,4"/>
<!-- n1 -->
<g id="node1" class="node">
<title>n1</title>
<ellipse fill="none" stroke="black" cx="211" cy="-378" rx="65.17" ry="18"/>
<text text-anchor="middle" x="211" y="-372.95" font-family="Helvetica,Arial,sans-serif" font-size="14.00">EJEMPLO 1</text>
</g>
<!-- n2 -->
<g id="node2" class="node">
<title>n2</title>
<ellipse fill="none" stroke="black" cx="27" cy="-306" rx="27" ry="18"/>
<text text-anchor="middle" x="27" y="-300.95" font-family="Helvetica,Arial,sans-serif" font-size="14.00">t=5</text>
</g>
<!-- n1&#45;&#45;n2 -->
<g id="edge1" class="edge">
<title>n1&#45;&#45;n2</title>
<path fill="none" stroke="black" d="M170.08,-363.54C140.13,-353.41 98.68,-338.77 63,-324 58.15,-321.99 53,-319.68 48.17,-317.41"/>
</g>
<!-- n3 -->
<g id="node3" class="node">
<title>n3</title>
<ellipse fill="none" stroke="black" cx="101" cy="-306" rx="28.83" ry="18"/>
<text text-anchor="middle" x="101" y="-300.95" font-family="Helvetica,Arial,sans-serif" font-size="14.00">A=4</text>
</g>
<!-- n1&#45;&#45;n3 -->
<g id="edge2" class="edge">
<title>n1&#45;&#45;n3</title>
<path fill="none" stroke="black" d="M185.76,-360.94C165.97,-348.35 138.83,-331.07 120.64,-319.5"/>
</g>
<!-- n4 -->
<g id="node4" class="node">
<title>n4</title>
<ellipse fill="none" stroke="black" cx="175" cy="-306" rx="27" ry="18"/>
<text text-anchor="middle" x="175" y="-300.95" font-family="Helvetica,Arial,sans-serif" font-size="14.00">2</text>
</g>
<!-- n1&#45;&#45;n4 -->
<g id="edge3" class="edge">
<title>n1&#45;&#45;n4</title>
<path fill="none" stroke="black" d="M202.1,-359.7C196.35,-348.52 188.93,-334.08 183.3,-323.14"/>
</g>
<!-- n5 -->
<g id="node5" class="node">
<title>n5</title>
<ellipse fill="none" stroke="black" cx="247" cy="-306" rx="27" ry="18"/>
<text text-anchor="middle" x="247" y="-300.95" font-family="Helvetica,Arial,sans-serif" font-size="14.00">3</text>
</g>
<!-- n1&#45;&#45;n5 -->
<g id="edge4" class="edge">
<title>n1&#45;&#45;n5</title>
<path fill="none" stroke="black" d="M219.9,-359.7C225.65,-348.52 233.07,-334.08 238.7,-323.14"/>
</g>
<!-- n6 -->
<g id="node6" class="node">
<title>n6</title>
<ellipse fill="none" stroke="black" cx="319" cy="-306" rx="27" ry="18"/>
<text text-anchor="middle" x="319" y="-300.95" font-family="Helvetica,Arial,sans-serif" font-size="14.00">0</text>
</g>
<!-- n1&#45;&#45;n6 -->
<g id="edge5" class="edge">
<title>n1&#45;&#45;n6</title>
<path fill="none" stroke="black" d="M235.78,-360.94C255.33,-348.27 282.2,-330.85 300.06,-319.28"/>
</g>
<!-- n7 -->
<g id="node7" class="node">
<title>n7</title>
<ellipse fill="none" stroke="black" cx="391" cy="-306" rx="27" ry="18"/>
<text text-anchor="middle" x="391" y="-300.95" font-family="Helvetica,Arial,sans-serif" font-size="14.00">4</text>
</g>
<!-- n1&#45;&#45;n7 -->
<g id="edge6" class="edge">
<title>n1&#45;&#45;n7</title>
<path fill="none" stroke="black" d="M250.79,-363.42C279.91,-353.23 320.24,-338.57 355,-324 359.84,-321.97 364.99,-319.65 369.82,-317.38"/>
</g>
<!-- n8 -->
<g id="node8" class="node">
<title>n8</title>
<ellipse fill="none" stroke="black" cx="175" cy="-234" rx="27" ry="18"/>
<text text-anchor="middle" x="175" y="-228.95" font-family="Helvetica,Arial,sans-serif" font-size="14.00">0</text>
</g>
<!-- n4&#45;&#45;n8 -->
<g id="edge7" class="edge">
<title>n4&#45;&#45;n8</title>
<path fill="none" stroke="black" d="M175,-287.7C175,-276.85 175,-262.92 175,-252.1"/>
</g>
<!-- n9 -->
<g id="node9" class="node">
<title>n9</title>
<ellipse fill="none" stroke="black" cx="247" cy="-234" rx="27" ry="18"/>
<text text-anchor="middle" x="247" y="-228.95" font-family="Helvetica,Arial,sans-serif" font-size="14.00">0</text>
</g>
<!-- n5&#45;&#45;n9 -->
<g id="edge8" class="edge">
<title>n5&#45;&#45;n9</title>
<path fill="none" stroke="black" d="M247,-287.7C247,-276.85 247,-262.92 247,-252.1"/>
</g>
<!-- n10 -->
<g id="node10" class="node">
<title>n10</title>
<ellipse fill="none" stroke="black" cx="319" cy="-234" rx="27" ry="18"/>
<text text-anchor="middle" x="319" y="-228.95" font-family="Helvetica,Arial,sans-serif" font-size="14.00">6</text>
</g>
<!-- n6&#45;&#45;n10 -->
<g id="edge9" class="edge">
<title>n6&#45;&#45;n10</title>
<path fill="none" stroke="black" d="M319,-287.7C319,-276.85 319,-262.92 319,-252.1"/>
</g>
<!-- n11 -->
<g id="node11" class="node">
<title>n11</title>
<ellipse fill="none" stroke="black" cx="391" cy="-234" rx="27" ry="18"/>
<text text-anchor="middle" x="391" y="-228.95" font-family="Helvetica,Arial,sans-serif" font-size="14.00">3</text>
</g>
<!-- n7&#45;&#45;n11 -->
<g id="edge10" class="edge">
<title>n7&#45;&#45;n11</title>
<path fill="none" stroke="black" d="M391,-287.7C391,-276.85 391,-262.92 391,-252.1"/>
</g>
<!-- n12 -->
<g id="node12" class="node">
<title>n12</title>
<ellipse fill="none" stroke="black" cx="175" cy="-162" rx="27" ry="18"/>
<text text-anchor="middle" x="175" y="-156.95" font-family="Helvetica,Arial,sans-serif" font-size="14.00">3</text>
</g>
<!-- n8&#45;&#45;n12 -->
<g id="edge11" class="edge">
<title>n8&#45;&#45;n12</title>
<path fill="none" stroke="black" d="M175,-215.7C175,-204.85 175,-190.92 175,-180.1"/>
</g>
<!-- n13 -->
<g id="node13" class="node">
<title>n13</title>
<ellipse fill="none" stroke="black" cx="247" cy="-162" rx="27" ry="18"/>
<text text-anchor="middle" x="247" y="-156.95" font-family="Helvetica,Arial,sans-serif" font-size="14.00">4</text>
</g>
<!-- n9&#45;&#45;n13 -->
<g id="edge12" class="edge">
<title>n9&#45;&#45;n13</title>
<path fill="none" stroke="black" d="M247,-215.7C247,-204.85 247,-190.92 247,-180.1"/>
</g>
<!-- n14 -->
<g id="node14" class="node">
<title>n14</title>
<ellipse fill="none" stroke="black" cx="319" cy="-162" rx="27" ry="18"/>
<text text-anchor="middle" x="319" y="-156.95" font-family="Helvetica,Arial,sans-serif" font-size="14.00">0</text>
</g>
<!-- n10&#45;&#45;n14 -->
<g id="edge13" class="edge">
<title>n10&#45;&#45;n14</title>
<path fill="none" stroke="black" d="M319,-215.7C319,-204.85 319,-190.92 319,-180.1"/>
</g>
<!-- n15 -->
<g id="node15" class="node">
<title>n15</title>
<ellipse fill="none" stroke="black" cx="391" cy="-162" rx="27" ry="18"/>
<text text-anchor="middle" x="391" y="-156.95" font-family="Helvetica,Arial,sans-serif" font-size="14.00">2</text>
</g>
<!-- n11&#45;&#45;n15 -->
<g id="edge14" class="edge">
<title>n11&#45;&#45;n15</title>
<path fill="none" stroke="black" d="M391,-215.7C391,-204.85 391,-190.92 391,-180.1"/>
</g>
<!-- n16 -->
<g id="node16" class="node">
<title>n16</title>
<ellipse fill="none" stroke="black" cx="175" cy="-90" rx="27" ry="18"/>
<text text-anchor="middle" x="175" y="-84.95" font-family="Helvetica,Arial,sans-serif" font-size="14.00">1</text>
</g>
<!-- n12&#45;&#45;n16 -->
<g id="edge15" class="edge">
<title>n12&#45;&#45;n16</title>
<path fill="none" stroke="black" d="M175,-143.7C175,-132.85 175,-118.92 175,-108.1"/>
</g>
<!-- n17 -->
<g id="node17" class="node">
<title>n17</title>
<ellipse fill="none" stroke="black" cx="247" cy="-90" rx="27" ry="18"/>
<text text-anchor="middle" x="247" y="-84.95" font-family="Helvetica,Arial,sans-serif" font-size="14.00">0</text>
</g>
<!-- n13&#45;&#45;n17 -->
<g id="edge16" class="edge">
<title>n13&#45;&#45;n17</title>
<path fill="none" stroke="black" d="M247,-143.7C247,-132.85 247,-118.92 247,-108.1"/>
</g>
<!-- n18 -->
<g id="node18" class="node">
<title>n18</title>
<ellipse fill="none" stroke="black" cx="319" cy="-90" rx="27" ry="18"/>
<text text-anchor="middle" x="319" y="-84.95" font-family="Helvetica,Arial,sans-serif" font-size="14.00">1</text>
</g>
<!-- n14&#45;&#45;n18 -->
<g id="edge17" class="edge">
<title>n14&#45;&#45;n18</title>
<path fill="none" stroke="black" d="M319,-143.7C319,-132.85 319,-118.92 319,-108.1"/>
</g>
<!-- n19 -->
<g id="node19" class="node">
<title>n19</title>
<ellipse fill="none" stroke="black" cx="391" cy="-90" rx="27" ry="18"/>
<text text-anchor="middle" x="391" y="-84.95" font-family="Helvetica,Arial,sans-serif" font-size="14.00">5</text>
</g>
<!-- n15&#45;&#45;n19 -->
<g id="edge18" class="edge">
<title>n15&#45;&#45;n19</title>
<path fill="none" stroke="black" d="M391,-143.7C391,-132.85 391,-118.92 391,-108.1"/>
</g>
<!-- n20 -->
<g id="node20" class="node">
<title>n20</title>
<ellipse fill="none" stroke="black" cx="175" cy="-18" rx="27" ry="18"/>
<text text-anchor="middle" x="175" y="-12.95" font-family="Helvetica,Arial,sans-serif" font-size="14.00">0</text>
</g>
<!-- n16&#45;&#45;n20 -->
<g id="edge19" class="edge">
<title>n16&#45;&#45;n20</title>
<path fill="none" stroke="black" d="M175,-71.7C175,-60.85 175,-46.92 175,-36.1"/>
</g>
<!-- n21 -->
<g id="node21" class="node">
<title>n21</title>
<ellipse fill="none" stroke="black" cx="247" cy="-18" rx="27" ry="18"/>
<text text-anchor="middle" x="247" y="-12.95" font-family="Helvetica,Arial,sans-serif" font-size="14.00">0</text>
</g>
<!-- n17&#45;&#45;n21 -->
<g id="edge20" class="edge">
<title>n17&#45;&#45;n21</title>
<path fill="none" stroke="black" d="M247,-71.7C247,-60.85 247,-46.92 247,-36.1"/>
</g>
<!-- n22 -->
<g id="node22" class="node">
<title>n22</title>
<ellipse fill="none" stroke="black" cx="319" cy="-18" rx="27" ry="18"/>
<text text-anchor="middle" x="319" y="-12.95" font-family="Helvetica,Arial,sans-serif" font-size="14.00">3</text>
</g>
<!-- n18&#45;&#45;n22 -->
<g id="edge21" class="edge">
<title>n18&#45;&#45;n22</title>
<path fill="none" stroke="black" d="M319,-71.7C319,-60.85 319,-46.92 319,-36.1"/>
</g>
<!-- n23 -->
<g id="node23" class="node">
<title>n23</title>
<ellipse fill="none" stroke="black" cx="391" cy="-18" rx="27" ry="18"/>
<text text-anchor="middle" x="391" y="-12.95" font-family="Helvetica,Arial,sans-serif" font-size="14.00">1</text>
</g>
<!-- n19&#45;&#45;n23 -->
<g id="edge22" class="edge">
<title>n19&#45;&#45;n23</title>
<path fill="none" stroke="black" d="M391,-71.7C391,-60.85 391,-46.92 391,-36.1"/>
</g>
</g>
</svg>
